<?xml version="1.0" encoding="utf-8"?>
<!-- Generator: Adobe Illustrator 25.0.0, SVG Export Plug-In . SVG Version: 6.00 Build 0)  -->
<svg version="1.1" id="Layer_1" xmlns="http://www.w3.org/2000/svg" xmlns:xlink="http://www.w3.org/1999/xlink" x="0px" y="0px"
	 viewBox="0 0 8.6 13.7" style="enable-background:new 0 0 8.6 13.7;" xml:space="preserve">
<style type="text/css">
	.st0{fill:#202020;}
</style>
<g id="Layer_2_1_">
	<g id="Layer_1-2">
		<path class="st0" d="M2.6,0.2L0.3,2.1c0,0,0,0,0,0c-0.1,0.1-0.2,0.3,0,0.5l3.4,4.1l-3.4,4.2c0,0,0,0,0,0c-0.1,0.2-0.1,0.4,0.1,0.5
			l2.3,1.9c0.1,0.1,0.4,0.1,0.5,0l5.1-6.2l0.1-0.1c0,0,0-0.1,0-0.1l0,0c0-0.1,0.1-0.1,0.1-0.2c0-0.1,0-0.2-0.1-0.2l0,0V6.4H8.2
			L3.1,0.2C3,0.1,2.8,0,2.6,0.2z"/>
	</g>
</g>
</svg>
