<svg width="114" height="304" viewBox="0 0 114 304" fill="none" xmlns="http://www.w3.org/2000/svg">
<rect y="154.469" width="242.414" height="45.0444" rx="22.5222" transform="rotate(-39.5841 0 154.469)" fill="#0074BE"/>
<circle cx="104.5" cy="297.5" r="6.5" fill="#D9D9D9"/>
<circle cx="79" cy="297" r="6" fill="#D9D9D9"/>
<circle cx="53.5" cy="296.5" r="5.5" fill="#D9D9D9"/>
<circle cx="28" cy="296" r="5" fill="#D9D9D9"/>
<circle cx="28" cy="271" r="5" fill="#D9D9D9"/>
<circle cx="28" cy="246" r="5" fill="#D9D9D9"/>
<circle cx="28" cy="221" r="5" fill="#D9D9D9"/>
<circle cx="28" cy="196" r="5" fill="#D9D9D9"/>
<circle cx="53.5" cy="271.5" r="5.5" fill="#D9D9D9"/>
<circle cx="53" cy="246" r="5" fill="#D9D9D9"/>
<circle cx="52.5" cy="220.5" r="4.5" fill="#D9D9D9"/>
<circle cx="52" cy="195" r="4" fill="#D9D9D9"/>
<circle cx="79" cy="272" r="6" fill="#D9D9D9"/>
<circle cx="78.5" cy="246.5" r="5.5" fill="#D9D9D9"/>
<circle cx="78" cy="221" r="5" fill="#D9D9D9"/>
<circle cx="77.5" cy="195.5" r="4.5" fill="#D9D9D9"/>
<circle cx="104" cy="272" r="6" fill="#D9D9D9"/>
<circle cx="103.5" cy="246.5" r="5.5" fill="#D9D9D9"/>
<circle cx="103" cy="221" r="5" fill="#D9D9D9"/>
<circle cx="102.5" cy="195.5" r="4.5" fill="#D9D9D9"/>
</svg>
