<svg width="121" height="386" viewBox="0 0 121 386" fill="none" xmlns="http://www.w3.org/2000/svg">
<rect x="-142" y="353.28" width="306.462" height="41.4216" rx="20.7108" transform="rotate(-39.5841 -142 353.28)" fill="#D9D9D9"/>
<circle cx="14.5998" cy="7.75526" r="6.5" transform="rotate(179.117 14.5998 7.75526)" fill="#D9D9D9"/>
<circle cx="40.1045" cy="7.86175" r="6" transform="rotate(179.117 40.1045 7.86175)" fill="#D9D9D9"/>
<circle cx="65.6092" cy="7.96922" r="5.5" transform="rotate(179.117 65.6092 7.96922)" fill="#D9D9D9"/>
<circle cx="91.114" cy="8.07571" r="5" transform="rotate(179.117 91.114 8.07571)" fill="#D9D9D9"/>
<circle cx="91.4987" cy="33.0728" r="5" transform="rotate(179.117 91.4987 33.0728)" fill="#D9D9D9"/>
<circle cx="91.8845" cy="58.0699" r="5" transform="rotate(179.117 91.8845 58.0699)" fill="#D9D9D9"/>
<circle cx="92.2692" cy="83.0669" r="5" transform="rotate(179.117 92.2692 83.0669)" fill="#D9D9D9"/>
<circle cx="92.655" cy="108.064" r="5" transform="rotate(179.117 92.655 108.064)" fill="#D9D9D9"/>
<circle cx="65.994" cy="32.9663" r="5.5" transform="rotate(179.117 65.994 32.9663)" fill="#D9D9D9"/>
<circle cx="66.8874" cy="58.4556" r="5" transform="rotate(179.117 66.8874 58.4556)" fill="#D9D9D9"/>
<circle cx="67.7798" cy="83.9449" r="4.5" transform="rotate(179.117 67.7798 83.9449)" fill="#D9D9D9"/>
<circle cx="68.6732" cy="109.434" r="4" transform="rotate(179.117 68.6732 109.434)" fill="#D9D9D9"/>
<circle cx="40.4893" cy="32.8588" r="6" transform="rotate(179.117 40.4893 32.8588)" fill="#D9D9D9"/>
<circle cx="41.3827" cy="58.3481" r="5.5" transform="rotate(179.117 41.3827 58.3481)" fill="#D9D9D9"/>
<circle cx="42.2751" cy="83.8374" r="5" transform="rotate(179.117 42.2751 83.8374)" fill="#D9D9D9"/>
<circle cx="43.1685" cy="109.327" r="4.5" transform="rotate(179.117 43.1685 109.327)" fill="#D9D9D9"/>
<circle cx="15.4922" cy="33.2446" r="6" transform="rotate(179.117 15.4922 33.2446)" fill="#D9D9D9"/>
<circle cx="16.3856" cy="58.7339" r="5.5" transform="rotate(179.117 16.3856 58.7339)" fill="#D9D9D9"/>
<circle cx="17.279" cy="84.2232" r="5" transform="rotate(179.117 17.279 84.2232)" fill="#D9D9D9"/>
<circle cx="18.1714" cy="109.712" r="4.5" transform="rotate(179.117 18.1714 109.712)" fill="#D9D9D9"/>
<circle cx="15.5998" cy="57.7553" r="6.5" transform="rotate(179.117 15.5998 57.7553)" fill="#D9D9D9"/>
<circle cx="41.1045" cy="57.8618" r="6" transform="rotate(179.117 41.1045 57.8618)" fill="#D9D9D9"/>
<circle cx="66.6092" cy="57.9692" r="5.5" transform="rotate(179.117 66.6092 57.9692)" fill="#D9D9D9"/>
<circle cx="92.114" cy="58.0757" r="5" transform="rotate(179.117 92.114 58.0757)" fill="#D9D9D9"/>
<circle cx="92.4987" cy="83.0728" r="5" transform="rotate(179.117 92.4987 83.0728)" fill="#D9D9D9"/>
<circle cx="92.8845" cy="108.07" r="5" transform="rotate(179.117 92.8845 108.07)" fill="#D9D9D9"/>
<circle cx="93.2692" cy="133.067" r="5" transform="rotate(179.117 93.2692 133.067)" fill="#D9D9D9"/>
<circle cx="93.655" cy="158.064" r="5" transform="rotate(179.117 93.655 158.064)" fill="#D9D9D9"/>
<circle cx="66.994" cy="82.9663" r="5.5" transform="rotate(179.117 66.994 82.9663)" fill="#D9D9D9"/>
<circle cx="67.8874" cy="108.456" r="5" transform="rotate(179.117 67.8874 108.456)" fill="#D9D9D9"/>
<circle cx="68.7798" cy="133.945" r="4.5" transform="rotate(179.117 68.7798 133.945)" fill="#D9D9D9"/>
<circle cx="69.6732" cy="159.434" r="4" transform="rotate(179.117 69.6732 159.434)" fill="#D9D9D9"/>
<circle cx="41.4893" cy="82.8588" r="6" transform="rotate(179.117 41.4893 82.8588)" fill="#D9D9D9"/>
<circle cx="42.3827" cy="108.348" r="5.5" transform="rotate(179.117 42.3827 108.348)" fill="#D9D9D9"/>
<circle cx="43.2751" cy="133.837" r="5" transform="rotate(179.117 43.2751 133.837)" fill="#D9D9D9"/>
<circle cx="44.1685" cy="159.327" r="4.5" transform="rotate(179.117 44.1685 159.327)" fill="#D9D9D9"/>
<circle cx="16.4922" cy="83.2446" r="6" transform="rotate(179.117 16.4922 83.2446)" fill="#D9D9D9"/>
<circle cx="17.3856" cy="108.734" r="5.5" transform="rotate(179.117 17.3856 108.734)" fill="#D9D9D9"/>
<circle cx="18.279" cy="134.223" r="5" transform="rotate(179.117 18.279 134.223)" fill="#D9D9D9"/>
<circle cx="19.1714" cy="159.712" r="4.5" transform="rotate(179.117 19.1714 159.712)" fill="#D9D9D9"/>
</svg>
